<mxfile host="Electron" modified="2024-04-05T10:38:05.551Z" agent="Mozilla/5.0 (Windows NT 10.0; Win64; x64) AppleWebKit/537.36 (KHTML, like Gecko) draw.io/24.0.4 Chrome/120.0.6099.109 Electron/28.1.0 Safari/537.36" etag="Zi1RZdIHnJ64fMJ9PdnA" version="24.0.4" type="device">
  <diagram name="Page-1" id="ppZMmiEuSEUpjYbNcqeP">
    <mxGraphModel dx="1444" dy="944" grid="1" gridSize="10" guides="1" tooltips="1" connect="1" arrows="1" fold="1" page="1" pageScale="1" pageWidth="850" pageHeight="1100" math="0" shadow="0">
      <root>
        <mxCell id="0" />
        <mxCell id="1" parent="0" />
        <mxCell id="K9-Xf96pnQr6iXMx5Urm-1" value="&lt;b&gt;&lt;font style=&quot;font-size: 25px;&quot;&gt;Soru1&lt;/font&gt;&lt;/b&gt;" style="text;html=1;align=center;verticalAlign=middle;whiteSpace=wrap;rounded=0;fillColor=#f8cecc;strokeColor=#b85450;" vertex="1" parent="1">
          <mxGeometry x="80" y="20" width="110" height="60" as="geometry" />
        </mxCell>
      </root>
    </mxGraphModel>
  </diagram>
</mxfile>
